<svg width="70" height="83" viewBox="0 0 70 83" fill="none" xmlns="http://www.w3.org/2000/svg">
<path d="M9.204 72.288H7.86L7.566 74.472H8.896L8.896 75.732H7.398L7.09 78H5.872L6.18 75.732L3.786 75.732L3.478 78H2.26L2.568 75.732H1.378L1.378 74.472H2.736L3.016 72.288H1.7L1.7 71.028H3.184L3.492 68.76H4.738L4.43 71.028L6.796 71.028L7.104 68.76H8.336L8.028 71.028H9.204L9.204 72.288ZM3.954 74.514L6.334 74.514L6.642 72.246L4.262 72.246L3.954 74.514ZM10.7616 78L10.7616 68.76L13.6596 68.76C15.1623 68.76 16.3756 69.1847 17.2996 70.034C18.2236 70.8833 18.6856 71.994 18.6856 73.366C18.6856 74.7193 18.2189 75.83 17.2856 76.698C16.3616 77.566 15.1529 78 13.6596 78L10.7616 78ZM12.2456 76.67L13.6456 76.67C14.7096 76.67 15.5589 76.3667 16.1936 75.76C16.8376 75.144 17.1596 74.346 17.1596 73.366C17.1596 72.3767 16.8423 71.588 16.2076 71C15.5729 70.4027 14.7189 70.104 13.6456 70.104L12.2456 70.104L12.2456 76.67ZM19.797 68.76L26.139 68.76V69.166L21.673 78H20.063L24.137 70.09L19.797 70.09V68.76ZM33.6387 71.812C33.6387 72.1667 33.5827 72.5073 33.4707 72.834C33.3867 73.0953 33.256 73.38 33.0787 73.688C32.9294 73.94 32.6914 74.29 32.3647 74.738L30.0687 78L28.3047 78L30.5307 74.85C30.4094 74.878 30.274 74.892 30.1247 74.892C29.322 74.892 28.6174 74.5933 28.0107 73.996C27.404 73.3893 27.1007 72.6567 27.1007 71.798C27.1007 70.902 27.4227 70.146 28.0667 69.53C28.7107 68.914 29.4807 68.606 30.3767 68.606C31.2634 68.5873 32.0334 68.8953 32.6867 69.53C33.34 70.1553 33.6574 70.916 33.6387 71.812ZM31.6507 73.1C31.996 72.7547 32.1687 72.3207 32.1687 71.798C32.1687 71.2753 31.996 70.8413 31.6507 70.496C31.296 70.1413 30.8714 69.964 30.3767 69.964C29.8634 69.964 29.4294 70.1413 29.0747 70.496C28.7294 70.8413 28.5567 71.2753 28.5567 71.798C28.5567 72.33 28.7294 72.7687 29.0747 73.114C29.42 73.4593 29.854 73.632 30.3767 73.632C30.8714 73.632 31.296 73.4547 31.6507 73.1ZM41.418 74.962C41.418 75.858 41.096 76.614 40.452 77.23C39.808 77.846 39.038 78.154 38.142 78.154C37.2553 78.1727 36.4853 77.8693 35.832 77.244C35.1787 76.6093 34.8613 75.844 34.88 74.948C34.88 74.6027 34.9313 74.2667 35.034 73.94C35.146 73.6133 35.2767 73.3287 35.426 73.086C35.5567 72.8713 35.7947 72.5167 36.14 72.022L38.45 68.76H40.2L37.974 71.91C38.0953 71.882 38.2307 71.868 38.38 71.868C39.2013 71.868 39.9107 72.1713 40.508 72.778C41.1147 73.3753 41.418 74.1033 41.418 74.962ZM39.948 74.962C39.948 74.4487 39.7707 74.0147 39.416 73.66C39.0613 73.3053 38.6367 73.128 38.142 73.128C37.638 73.128 37.2087 73.3053 36.854 73.66C36.5087 74.0053 36.336 74.4393 36.336 74.962C36.336 75.494 36.5087 75.9327 36.854 76.278C37.1993 76.6233 37.6287 76.796 38.142 76.796C38.646 76.796 39.0707 76.6233 39.416 76.278C39.7707 75.9233 39.948 75.4847 39.948 74.962ZM49.1973 71.812C49.1973 72.1667 49.1413 72.5073 49.0293 72.834C48.9453 73.0953 48.8146 73.38 48.6373 73.688C48.488 73.94 48.25 74.29 47.9233 74.738L45.6273 78H43.8633L46.0893 74.85C45.968 74.878 45.8326 74.892 45.6833 74.892C44.8806 74.892 44.176 74.5933 43.5693 73.996C42.9626 73.3893 42.6593 72.6567 42.6593 71.798C42.6593 70.902 42.9813 70.146 43.6253 69.53C44.2693 68.914 45.0393 68.606 45.9353 68.606C46.822 68.5873 47.592 68.8953 48.2453 69.53C48.8986 70.1553 49.216 70.916 49.1973 71.812ZM47.2093 73.1C47.5546 72.7547 47.7273 72.3207 47.7273 71.798C47.7273 71.2753 47.5546 70.8413 47.2093 70.496C46.8546 70.1413 46.43 69.964 45.9353 69.964C45.422 69.964 44.988 70.1413 44.6333 70.496C44.288 70.8413 44.1153 71.2753 44.1153 71.798C44.1153 72.33 44.288 72.7687 44.6333 73.114C44.9786 73.4593 45.4126 73.632 45.9353 73.632C46.43 73.632 46.8546 73.4547 47.2093 73.1ZM50.9706 78L50.9706 68.76L57.0466 68.76V70.09L52.4546 70.09L52.4546 72.456L55.9126 72.456V73.744L52.4546 73.744L52.4546 76.67L57.2146 76.67V78L50.9706 78Z" fill="black"/>
<rect width="70" height="50" fill="#D7969E"/>
</svg>
