<svg width="70" height="83" viewBox="0 0 70 83" fill="none" xmlns="http://www.w3.org/2000/svg">
<path d="M9.204 72.288H7.86L7.566 74.472H8.896L8.896 75.732H7.398L7.09 78H5.872L6.18 75.732L3.786 75.732L3.478 78H2.26L2.568 75.732H1.378L1.378 74.472H2.736L3.016 72.288H1.7L1.7 71.028H3.184L3.492 68.76H4.738L4.43 71.028L6.796 71.028L7.104 68.76H8.336L8.028 71.028H9.204L9.204 72.288ZM3.954 74.514L6.334 74.514L6.642 72.246L4.262 72.246L3.954 74.514ZM17.7196 75.312C17.7196 76.096 17.4443 76.74 16.8936 77.244C16.3429 77.748 15.6196 78 14.7236 78L10.7616 78L10.7616 68.76L13.9956 68.76C14.8263 68.76 15.4936 68.9933 15.9976 69.46C16.5109 69.9173 16.7676 70.5053 16.7676 71.224C16.7676 71.9427 16.5109 72.5213 15.9976 72.96C16.5389 73.1373 16.9589 73.4313 17.2576 73.842C17.5656 74.2527 17.7196 74.7427 17.7196 75.312ZM13.8556 70.062L12.2176 70.062L12.2176 72.554L13.8556 72.554C14.3036 72.554 14.6536 72.442 14.9056 72.218C15.1576 71.994 15.2836 71.686 15.2836 71.294C15.2836 70.9113 15.1576 70.6127 14.9056 70.398C14.6629 70.174 14.3129 70.062 13.8556 70.062ZM16.2216 75.27C16.2216 74.822 16.0769 74.472 15.7876 74.22C15.4983 73.9587 15.1016 73.828 14.5976 73.828L12.2176 73.828L12.2176 76.698L14.5976 76.698C15.1109 76.698 15.5076 76.572 15.7876 76.32C16.0769 76.0587 16.2216 75.7087 16.2216 75.27ZM18.7579 68.76L25.0999 68.76V69.166L20.6339 78H19.0239L23.0979 70.09L18.7579 70.09V68.76ZM33.5516 75.312C33.5516 76.096 33.2763 76.74 32.7256 77.244C32.175 77.748 31.4516 78 30.5556 78L26.5936 78L26.5936 68.76H29.8276C30.6583 68.76 31.3256 68.9933 31.8296 69.46C32.343 69.9173 32.5996 70.5053 32.5996 71.224C32.5996 71.9427 32.343 72.5213 31.8296 72.96C32.371 73.1373 32.791 73.4313 33.0896 73.842C33.3976 74.2527 33.5516 74.7427 33.5516 75.312ZM29.6876 70.062H28.0496L28.0496 72.554H29.6876C30.1356 72.554 30.4856 72.442 30.7376 72.218C30.9896 71.994 31.1156 71.686 31.1156 71.294C31.1156 70.9113 30.9896 70.6127 30.7376 70.398C30.495 70.174 30.145 70.062 29.6876 70.062ZM32.0536 75.27C32.0536 74.822 31.909 74.472 31.6196 74.22C31.3303 73.9587 30.9336 73.828 30.4296 73.828L28.0496 73.828L28.0496 76.698L30.4296 76.698C30.943 76.698 31.3396 76.572 31.6196 76.32C31.909 76.0587 32.0536 75.7087 32.0536 75.27ZM34.5899 68.76L40.9319 68.76V69.166L36.4659 78H34.8559L38.9299 70.09L34.5899 70.09V68.76ZM49.3837 75.312C49.3837 76.096 49.1083 76.74 48.5577 77.244C48.007 77.748 47.2837 78 46.3877 78L42.4257 78L42.4257 68.76H45.6597C46.4903 68.76 47.1577 68.9933 47.6617 69.46C48.175 69.9173 48.4317 70.5053 48.4317 71.224C48.4317 71.9427 48.175 72.5213 47.6617 72.96C48.203 73.1373 48.623 73.4313 48.9217 73.842C49.2297 74.2527 49.3837 74.7427 49.3837 75.312ZM45.5197 70.062H43.8817L43.8817 72.554H45.5197C45.9677 72.554 46.3177 72.442 46.5697 72.218C46.8217 71.994 46.9477 71.686 46.9477 71.294C46.9477 70.9113 46.8217 70.6127 46.5697 70.398C46.327 70.174 45.977 70.062 45.5197 70.062ZM47.8857 75.27C47.8857 74.822 47.741 74.472 47.4517 74.22C47.1623 73.9587 46.7657 73.828 46.2617 73.828L43.8817 73.828L43.8817 76.698L46.2617 76.698C46.775 76.698 47.1717 76.572 47.4517 76.32C47.741 76.0587 47.8857 75.7087 47.8857 75.27ZM50.422 68.76L56.764 68.76V69.166L52.298 78H50.688L54.762 70.09H50.422V68.76Z" fill="black"/>
<rect width="70" height="50" fill="#B7B7B7"/>
</svg>
