<svg width="150" height="133" viewBox="0 0 150 133" fill="none" xmlns="http://www.w3.org/2000/svg">
<rect y="83" width="133" height="50" fill="#9A0034"/>
<path d="M141.104 45.968L141.104 47.12L142.976 47.372L142.976 46.232L144.056 46.232L144.056 47.516L146 47.78L146 48.824L144.056 48.56L144.056 50.612L146 50.876L146 51.92L144.056 51.656L144.056 52.676L142.976 52.676L142.976 51.512L141.104 51.272L141.104 52.4L140.024 52.4L140.024 51.128L138.08 50.864L138.08 49.796L140.024 50.06L140.024 48.032L138.08 47.768L138.08 46.712L140.024 46.976L140.024 45.968L141.104 45.968ZM143.012 50.468L143.012 48.428L141.068 48.164L141.068 50.204L143.012 50.468ZM140.696 39.1249C141 39.1249 141.292 39.1729 141.572 39.2689C141.796 39.3409 142.04 39.4529 142.304 39.6049C142.52 39.7329 142.82 39.9369 143.204 40.2169L146 42.1849L146 43.6969L143.3 41.7889C143.324 41.8929 143.336 42.0089 143.336 42.1369C143.336 42.8249 143.08 43.4289 142.568 43.9489C142.048 44.4689 141.42 44.7289 140.684 44.7289C139.916 44.7289 139.268 44.4529 138.74 43.9009C138.212 43.3489 137.948 42.6889 137.948 41.9209C137.932 41.1609 138.196 40.5009 138.74 39.9409C139.276 39.3809 139.928 39.1089 140.696 39.1249ZM141.8 40.8289C141.504 40.5329 141.132 40.3849 140.684 40.3849C140.236 40.3849 139.864 40.5329 139.568 40.8289C139.264 41.1329 139.112 41.4969 139.112 41.9209C139.112 42.3609 139.264 42.7329 139.568 43.0369C139.864 43.3329 140.236 43.4809 140.684 43.4809C141.14 43.4809 141.516 43.3329 141.812 43.0369C142.108 42.7409 142.256 42.3689 142.256 41.9209C142.256 41.4969 142.104 41.1329 141.8 40.8289ZM146 32.1282L144.68 32.6922L144.68 36.2562L146 36.8202L146 38.1762L137.948 34.6842L137.948 34.2522L146 30.7602L146 32.1282ZM143.588 33.1482L140.312 34.4682L143.588 35.8002L143.588 33.1482ZM141.968 29.4028C140.76 29.4028 139.792 29.1468 139.064 28.6348C138.32 28.1228 137.948 27.3708 137.948 26.3788C137.948 25.3868 138.316 24.6388 139.052 24.1348C139.78 23.6228 140.752 23.3668 141.968 23.3668C143.2 23.3668 144.204 23.6268 144.98 24.1468C145.748 24.6588 146.132 25.4028 146.132 26.3788C146.132 27.3548 145.744 28.1028 144.968 28.6228C144.192 29.1428 143.192 29.4028 141.968 29.4028ZM141.98 24.6868C140.068 24.6868 139.112 25.2508 139.112 26.3788C139.112 27.5148 140.068 28.0828 141.98 28.0828C143.972 28.0828 144.968 27.5148 144.968 26.3788C144.968 25.2508 143.972 24.6868 141.98 24.6868ZM141.968 21.5428C140.76 21.5428 139.792 21.2868 139.064 20.7748C138.32 20.2628 137.948 19.5108 137.948 18.5188C137.948 17.5268 138.316 16.7788 139.052 16.2748C139.78 15.7628 140.752 15.5068 141.968 15.5068C143.2 15.5068 144.204 15.7668 144.98 16.2868C145.748 16.7988 146.132 17.5428 146.132 18.5188C146.132 19.4948 145.744 20.2428 144.968 20.7628C144.192 21.2828 143.192 21.5428 141.968 21.5428ZM141.98 16.8268C140.068 16.8268 139.112 17.3908 139.112 18.5188C139.112 19.6548 140.068 20.2228 141.98 20.2228C143.972 20.2228 144.968 19.6548 144.968 18.5188C144.968 17.3908 143.972 16.8268 141.98 16.8268ZM143.456 8.48684C144.24 8.48684 144.884 8.77084 145.388 9.33884C145.884 9.89884 146.132 10.5788 146.132 11.3788C146.132 12.0028 145.98 12.5548 145.676 13.0348C145.364 13.5148 144.944 13.8908 144.416 14.1628L143.792 13.2748C144.576 12.7628 144.968 12.1428 144.968 11.4148C144.968 10.9348 144.832 10.5468 144.56 10.2508C144.28 9.94684 143.916 9.79484 143.468 9.79484C143.02 9.79484 142.676 9.95484 142.436 10.2748C142.196 10.5868 142.076 11.0348 142.076 11.6188L142.076 12.4948L141.728 12.4948L139.244 10.6468L139.244 13.5988L138.08 13.5988L138.08 8.66684L138.428 8.66684L141.02 10.5868C141.116 10.0108 141.376 9.51484 141.8 9.09884C142.216 8.69084 142.768 8.48684 143.456 8.48684ZM143.528 1.01122L144.62 1.01122L144.62 2.09122L146 2.09122L146 3.36322L144.62 3.36322L144.62 7.32322L144.272 7.32322L138.08 4.79122L138.08 3.48322L143.528 5.72722L143.528 3.36322L141.092 3.36322L141.092 2.09122L143.528 2.09122L143.528 1.01122Z" fill="black"/>
</svg>
