<svg width="70" height="83" viewBox="0 0 70 83" fill="none" xmlns="http://www.w3.org/2000/svg">
<path d="M8.204 72.288H6.86L6.566 74.472H7.896L7.896 75.732H6.398L6.09 78H4.872L5.18 75.732L2.786 75.732L2.478 78H1.26L1.568 75.732H0.378L0.378 74.472H1.736L2.016 72.288H0.7L0.7 71.028H2.184L2.492 68.76H3.738L3.43 71.028L5.796 71.028L6.104 68.76H7.336L7.028 71.028H8.204L8.204 72.288ZM2.954 74.514L5.334 74.514L5.642 72.246L3.262 72.246L2.954 74.514ZM16.0336 75.592C16.0336 76.3667 15.7209 76.9873 15.0956 77.454C14.4796 77.9207 13.6769 78.154 12.6876 78.154C11.6889 78.154 10.8769 77.9207 10.2516 77.454C9.62628 76.9873 9.31361 76.3667 9.31361 75.592C9.31361 74.4813 9.98094 73.6833 11.3156 73.198C10.2703 72.6287 9.74761 71.8867 9.74761 70.972C9.74761 70.2253 10.0229 69.6467 10.5736 69.236C11.1336 68.816 11.8383 68.606 12.6876 68.606C13.5276 68.606 14.2229 68.816 14.7736 69.236C15.3243 69.6467 15.5996 70.2253 15.5996 70.972C15.5996 71.896 15.0769 72.638 14.0316 73.198C15.3663 73.6927 16.0336 74.4907 16.0336 75.592ZM11.1616 71.028C11.1616 71.3547 11.2736 71.6253 11.4976 71.84C11.7309 72.0547 12.1229 72.2833 12.6736 72.526C13.2243 72.2927 13.6116 72.0687 13.8356 71.854C14.0689 71.63 14.1856 71.3547 14.1856 71.028C14.1856 70.664 14.0456 70.3747 13.7656 70.16C13.4949 69.936 13.1356 69.824 12.6876 69.824C12.2303 69.824 11.8616 69.936 11.5816 70.16C11.3016 70.3747 11.1616 70.664 11.1616 71.028ZM14.5356 75.536C14.5356 75.1347 14.3909 74.8127 14.1016 74.57C13.8123 74.3273 13.3363 74.0847 12.6736 73.842C12.0203 74.0753 11.5443 74.318 11.2456 74.57C10.9563 74.822 10.8116 75.144 10.8116 75.536C10.8116 75.9653 10.9749 76.306 11.3016 76.558C11.6376 76.8007 12.0996 76.922 12.6876 76.922C13.2756 76.922 13.7283 76.8007 14.0456 76.558C14.3723 76.306 14.5356 75.9653 14.5356 75.536ZM23.9297 71.812C23.9297 72.1667 23.8737 72.5073 23.7617 72.834C23.6777 73.0953 23.5471 73.38 23.3697 73.688C23.2204 73.94 22.9824 74.29 22.6557 74.738L20.3597 78H18.5957L20.8217 74.85C20.7004 74.878 20.5651 74.892 20.4157 74.892C19.6131 74.892 18.9084 74.5933 18.3017 73.996C17.6951 73.3893 17.3917 72.6567 17.3917 71.798C17.3917 70.902 17.7137 70.146 18.3577 69.53C19.0017 68.914 19.7717 68.606 20.6677 68.606C21.5544 68.5873 22.3244 68.8953 22.9777 69.53C23.6311 70.1553 23.9484 70.916 23.9297 71.812ZM21.9417 73.1C22.2871 72.7547 22.4597 72.3207 22.4597 71.798C22.4597 71.2753 22.2871 70.8413 21.9417 70.496C21.5871 70.1413 21.1624 69.964 20.6677 69.964C20.1544 69.964 19.7204 70.1413 19.3657 70.496C19.0204 70.8413 18.8477 71.2753 18.8477 71.798C18.8477 72.33 19.0204 72.7687 19.3657 73.114C19.7111 73.4593 20.1451 73.632 20.6677 73.632C21.1624 73.632 21.5871 73.4547 21.9417 73.1ZM31.975 75.592C31.975 76.3667 31.6623 76.9873 31.037 77.454C30.421 77.9207 29.6183 78.154 28.629 78.154C27.6303 78.154 26.8183 77.9207 26.193 77.454C25.5677 76.9873 25.255 76.3667 25.255 75.592C25.255 74.4813 25.9223 73.6833 27.257 73.198C26.2117 72.6287 25.689 71.8867 25.689 70.972C25.689 70.2253 25.9643 69.6467 26.515 69.236C27.075 68.816 27.7797 68.606 28.629 68.606C29.469 68.606 30.1643 68.816 30.715 69.236C31.2657 69.6467 31.541 70.2253 31.541 70.972C31.541 71.896 31.0183 72.638 29.973 73.198C31.3077 73.6927 31.975 74.4907 31.975 75.592ZM27.103 71.028C27.103 71.3547 27.215 71.6253 27.439 71.84C27.6723 72.0547 28.0643 72.2833 28.615 72.526C29.1657 72.2927 29.553 72.0687 29.777 71.854C30.0103 71.63 30.127 71.3547 30.127 71.028C30.127 70.664 29.987 70.3747 29.707 70.16C29.4363 69.936 29.077 69.824 28.629 69.824C28.1717 69.824 27.803 69.936 27.523 70.16C27.243 70.3747 27.103 70.664 27.103 71.028ZM30.477 75.536C30.477 75.1347 30.3323 74.8127 30.043 74.57C29.7537 74.3273 29.2777 74.0847 28.615 73.842C27.9617 74.0753 27.4857 74.318 27.187 74.57C26.8977 74.822 26.753 75.144 26.753 75.536C26.753 75.9653 26.9163 76.306 27.243 76.558C27.579 76.8007 28.041 76.922 28.629 76.922C29.217 76.922 29.6697 76.8007 29.987 76.558C30.3137 76.306 30.477 75.9653 30.477 75.536ZM39.8711 71.812C39.8711 72.1667 39.8151 72.5073 39.7031 72.834C39.6191 73.0953 39.4885 73.38 39.3111 73.688C39.1618 73.94 38.9238 74.29 38.5971 74.738L36.3011 78H34.5371L36.7631 74.85C36.6418 74.878 36.5065 74.892 36.3571 74.892C35.5545 74.892 34.8498 74.5933 34.2431 73.996C33.6365 73.3893 33.3331 72.6567 33.3331 71.798C33.3331 70.902 33.6551 70.146 34.2991 69.53C34.9431 68.914 35.7131 68.606 36.6091 68.606C37.4958 68.5873 38.2658 68.8953 38.9191 69.53C39.5725 70.1553 39.8898 70.916 39.8711 71.812ZM37.8831 73.1C38.2285 72.7547 38.4011 72.3207 38.4011 71.798C38.4011 71.2753 38.2285 70.8413 37.8831 70.496C37.5285 70.1413 37.1038 69.964 36.6091 69.964C36.0958 69.964 35.6618 70.1413 35.3071 70.496C34.9618 70.8413 34.7891 71.2753 34.7891 71.798C34.7891 72.33 34.9618 72.7687 35.3071 73.114C35.6525 73.4593 36.0865 73.632 36.6091 73.632C37.1038 73.632 37.5285 73.4547 37.8831 73.1ZM47.9164 75.592C47.9164 76.3667 47.6038 76.9873 46.9784 77.454C46.3624 77.9207 45.5598 78.154 44.5704 78.154C43.5718 78.154 42.7598 77.9207 42.1344 77.454C41.5091 76.9873 41.1964 76.3667 41.1964 75.592C41.1964 74.4813 41.8638 73.6833 43.1984 73.198C42.1531 72.6287 41.6304 71.8867 41.6304 70.972C41.6304 70.2253 41.9058 69.6467 42.4564 69.236C43.0164 68.816 43.7211 68.606 44.5704 68.606C45.4104 68.606 46.1058 68.816 46.6564 69.236C47.2071 69.6467 47.4824 70.2253 47.4824 70.972C47.4824 71.896 46.9598 72.638 45.9144 73.198C47.2491 73.6927 47.9164 74.4907 47.9164 75.592ZM43.0444 71.028C43.0444 71.3547 43.1564 71.6253 43.3804 71.84C43.6138 72.0547 44.0058 72.2833 44.5564 72.526C45.1071 72.2927 45.4944 72.0687 45.7184 71.854C45.9518 71.63 46.0684 71.3547 46.0684 71.028C46.0684 70.664 45.9284 70.3747 45.6484 70.16C45.3778 69.936 45.0184 69.824 44.5704 69.824C44.1131 69.824 43.7444 69.936 43.4644 70.16C43.1844 70.3747 43.0444 70.664 43.0444 71.028ZM46.4184 75.536C46.4184 75.1347 46.2738 74.8127 45.9844 74.57C45.6951 74.3273 45.2191 74.0847 44.5564 73.842C43.9031 74.0753 43.4271 74.318 43.1284 74.57C42.8391 74.822 42.6944 75.144 42.6944 75.536C42.6944 75.9653 42.8578 76.306 43.1844 76.558C43.5204 76.8007 43.9824 76.922 44.5704 76.922C45.1584 76.922 45.6111 76.8007 45.9284 76.558C46.2551 76.306 46.4184 75.9653 46.4184 75.536ZM55.8125 71.812C55.8125 72.1667 55.7565 72.5073 55.6445 72.834C55.5605 73.0953 55.4299 73.38 55.2525 73.688C55.1032 73.94 54.8652 74.29 54.5385 74.738L52.2425 78H50.4785L52.7045 74.85C52.5832 74.878 52.4479 74.892 52.2985 74.892C51.4959 74.892 50.7912 74.5933 50.1845 73.996C49.5779 73.3893 49.2745 72.6567 49.2745 71.798C49.2745 70.902 49.5965 70.146 50.2405 69.53C50.8845 68.914 51.6545 68.606 52.5505 68.606C53.4372 68.5873 54.2072 68.8953 54.8605 69.53C55.5139 70.1553 55.8312 70.916 55.8125 71.812ZM53.8245 73.1C54.1699 72.7547 54.3425 72.3207 54.3425 71.798C54.3425 71.2753 54.1699 70.8413 53.8245 70.496C53.4699 70.1413 53.0452 69.964 52.5505 69.964C52.0372 69.964 51.6032 70.1413 51.2485 70.496C50.9032 70.8413 50.7305 71.2753 50.7305 71.798C50.7305 72.33 50.9032 72.7687 51.2485 73.114C51.5939 73.4593 52.0279 73.632 52.5505 73.632C53.0452 73.632 53.4699 73.4547 53.8245 73.1Z" fill="black"/>
<rect width="70" height="50" fill="#898989"/>
</svg>
