<svg width="210" height="145" viewBox="0 0 210 145" fill="none" xmlns="http://www.w3.org/2000/svg">
<rect y="94" width="210" height="51" fill="#9A0034"/>
<path d="M199.288 52.796L199.288 54.14L201.472 54.434L201.472 53.104L202.732 53.104L202.732 54.602L205 54.91L205 56.128L202.732 55.82L202.732 58.214L205 58.522L205 59.74L202.732 59.432L202.732 60.622L201.472 60.622L201.472 59.264L199.288 58.984L199.288 60.3L198.028 60.3L198.028 58.816L195.76 58.508L195.76 57.262L198.028 57.57L198.028 55.204L195.76 54.896L195.76 53.664L198.028 53.972L198.028 52.796L199.288 52.796ZM201.514 58.046L201.514 55.666L199.246 55.358L199.246 57.738L201.514 58.046ZM198.812 44.8124C199.167 44.8124 199.507 44.8684 199.834 44.9804C200.095 45.0644 200.38 45.1951 200.688 45.3724C200.94 45.5217 201.29 45.7597 201.738 46.0864L205 48.3824L205 50.1464L201.85 47.9204C201.878 48.0417 201.892 48.1771 201.892 48.3264C201.892 49.1291 201.593 49.8337 200.996 50.4404C200.389 51.0471 199.657 51.3504 198.798 51.3504C197.902 51.3504 197.146 51.0284 196.53 50.3844C195.914 49.7404 195.606 48.9704 195.606 48.0744C195.587 47.1877 195.895 46.4177 196.53 45.7644C197.155 45.1111 197.916 44.7937 198.812 44.8124ZM200.1 46.8004C199.755 46.4551 199.321 46.2824 198.798 46.2824C198.275 46.2824 197.841 46.4551 197.496 46.8004C197.141 47.1551 196.964 47.5797 196.964 48.0744C196.964 48.5877 197.141 49.0217 197.496 49.3764C197.841 49.7217 198.275 49.8944 198.798 49.8944C199.33 49.8944 199.769 49.7217 200.114 49.3764C200.459 49.0311 200.632 48.5971 200.632 48.0744C200.632 47.5797 200.455 47.1551 200.1 46.8004ZM205 36.6495L203.46 37.3075L203.46 41.4655L205 42.1235L205 43.7055L195.606 39.6315L195.606 39.1275L205 35.0535L205 36.6495ZM202.186 37.8395L198.364 39.3795L202.186 40.9335L202.186 37.8395ZM200.296 33.47C198.887 33.47 197.757 33.1713 196.908 32.574C196.04 31.9767 195.606 31.0993 195.606 29.942C195.606 28.7847 196.035 27.912 196.894 27.324C197.743 26.7267 198.877 26.428 200.296 26.428C201.733 26.428 202.905 26.7313 203.81 27.338C204.706 27.9353 205.154 28.8033 205.154 29.942C205.154 31.0806 204.701 31.9533 203.796 32.56C202.891 33.1667 201.724 33.47 200.296 33.47ZM200.31 27.968C198.079 27.968 196.964 28.626 196.964 29.942C196.964 31.2673 198.079 31.93 200.31 31.93C202.634 31.93 203.796 31.2673 203.796 29.942C203.796 28.626 202.634 27.968 200.31 27.968ZM200.296 24.3C198.887 24.3 197.757 24.0013 196.908 23.404C196.04 22.8067 195.606 21.9293 195.606 20.772C195.606 19.6147 196.035 18.742 196.894 18.154C197.743 17.5567 198.877 17.258 200.296 17.258C201.733 17.258 202.905 17.5613 203.81 18.168C204.706 18.7653 205.154 19.6333 205.154 20.772C205.154 21.9106 204.701 22.7833 203.796 23.39C202.891 23.9967 201.724 24.3 200.296 24.3ZM200.31 18.798C198.079 18.798 196.964 19.456 196.964 20.772C196.964 22.0973 198.079 22.76 200.31 22.76C202.634 22.76 203.796 22.0973 203.796 20.772C203.796 19.456 202.634 18.798 200.31 18.798ZM202.032 9.06799C202.947 9.06799 203.698 9.39932 204.286 10.062C204.865 10.7153 205.154 11.5087 205.154 12.442C205.154 13.17 204.977 13.814 204.622 14.374C204.258 14.934 203.768 15.3727 203.152 15.69L202.424 14.654C203.339 14.0567 203.796 13.3333 203.796 12.484C203.796 11.924 203.637 11.4713 203.32 11.126C202.993 10.7713 202.569 10.594 202.046 10.594C201.523 10.594 201.122 10.7807 200.842 11.154C200.562 11.518 200.422 12.0407 200.422 12.722L200.422 13.744L200.016 13.744L197.118 11.588L197.118 15.032L195.76 15.032L195.76 9.27799L196.166 9.27799L199.19 11.518C199.302 10.846 199.605 10.2673 200.1 9.78199C200.585 9.30599 201.229 9.06799 202.032 9.06799ZM202.116 0.346421L203.39 0.346421L203.39 1.60642L205 1.60642L205 3.09042L203.39 3.09042L203.39 7.71042L202.984 7.71042L195.76 4.75642L195.76 3.23042L202.116 5.84842L202.116 3.09042L199.274 3.09042L199.274 1.60642L202.116 1.60642L202.116 0.346421Z" fill="black"/>
</svg>
