<svg width="70" height="83" viewBox="0 0 70 83" fill="none" xmlns="http://www.w3.org/2000/svg">
<path d="M8.204 72.288H6.86L6.566 74.472H7.896L7.896 75.732H6.398L6.09 78H4.872L5.18 75.732L2.786 75.732L2.478 78H1.26L1.568 75.732H0.378L0.378 74.472H1.736L2.016 72.288H0.7L0.7 71.028H2.184L2.492 68.76H3.738L3.43 71.028L5.796 71.028L6.104 68.76H7.336L7.028 71.028H8.204L8.204 72.288ZM2.954 74.514L5.334 74.514L5.642 72.246L3.262 72.246L2.954 74.514ZM9.76161 78L9.76161 68.76L15.8376 68.76L15.8376 70.09L11.2456 70.09L11.2456 72.456L14.7036 72.456L14.7036 73.744L11.2456 73.744L11.2456 76.67L16.0056 76.67V78L9.76161 78ZM24.0043 75.592C24.0043 76.3667 23.6916 76.9873 23.0663 77.454C22.4503 77.9207 21.6476 78.154 20.6583 78.154C19.6596 78.154 18.8476 77.9207 18.2223 77.454C17.597 76.9873 17.2843 76.3667 17.2843 75.592C17.2843 74.4813 17.9516 73.6833 19.2863 73.198C18.241 72.6287 17.7183 71.8867 17.7183 70.972C17.7183 70.2253 17.9936 69.6467 18.5443 69.236C19.1043 68.816 19.809 68.606 20.6583 68.606C21.4983 68.606 22.1936 68.816 22.7443 69.236C23.295 69.6467 23.5703 70.2253 23.5703 70.972C23.5703 71.896 23.0476 72.638 22.0023 73.198C23.337 73.6927 24.0043 74.4907 24.0043 75.592ZM19.1323 71.028C19.1323 71.3547 19.2443 71.6253 19.4683 71.84C19.7016 72.0547 20.0936 72.2833 20.6443 72.526C21.195 72.2927 21.5823 72.0687 21.8063 71.854C22.0396 71.63 22.1563 71.3547 22.1563 71.028C22.1563 70.664 22.0163 70.3747 21.7363 70.16C21.4656 69.936 21.1063 69.824 20.6583 69.824C20.201 69.824 19.8323 69.936 19.5523 70.16C19.2723 70.3747 19.1323 70.664 19.1323 71.028ZM22.5063 75.536C22.5063 75.1347 22.3616 74.8127 22.0723 74.57C21.783 74.3273 21.307 74.0847 20.6443 73.842C19.991 74.0753 19.515 74.318 19.2163 74.57C18.927 74.822 18.7823 75.144 18.7823 75.536C18.7823 75.9653 18.9456 76.306 19.2723 76.558C19.6083 76.8007 20.0703 76.922 20.6583 76.922C21.2463 76.922 21.699 76.8007 22.0163 76.558C22.343 76.306 22.5063 75.9653 22.5063 75.536ZM25.8944 78L25.8944 68.76H28.7924C30.2951 68.76 31.5084 69.1847 32.4324 70.034C33.3564 70.8833 33.8184 71.994 33.8184 73.366C33.8184 74.7193 33.3518 75.83 32.4184 76.698C31.4944 77.566 30.2858 78 28.7924 78L25.8944 78ZM27.3784 76.67L28.7784 76.67C29.8424 76.67 30.6918 76.3667 31.3264 75.76C31.9704 75.144 32.2924 74.346 32.2924 73.366C32.2924 72.3767 31.9751 71.588 31.3404 71C30.7058 70.4027 29.8518 70.104 28.7784 70.104L27.3784 70.104L27.3784 76.67ZM41.8598 75.592C41.8598 76.3667 41.5471 76.9873 40.9218 77.454C40.3058 77.9207 39.5031 78.154 38.5138 78.154C37.5151 78.154 36.7031 77.9207 36.0778 77.454C35.4524 76.9873 35.1398 76.3667 35.1398 75.592C35.1398 74.4813 35.8071 73.6833 37.1418 73.198C36.0964 72.6287 35.5738 71.8867 35.5738 70.972C35.5738 70.2253 35.8491 69.6467 36.3998 69.236C36.9598 68.816 37.6644 68.606 38.5138 68.606C39.3538 68.606 40.0491 68.816 40.5998 69.236C41.1504 69.6467 41.4258 70.2253 41.4258 70.972C41.4258 71.896 40.9031 72.638 39.8578 73.198C41.1924 73.6927 41.8598 74.4907 41.8598 75.592ZM36.9878 71.028C36.9878 71.3547 37.0998 71.6253 37.3238 71.84C37.5571 72.0547 37.9491 72.2833 38.4998 72.526C39.0504 72.2927 39.4378 72.0687 39.6618 71.854C39.8951 71.63 40.0118 71.3547 40.0118 71.028C40.0118 70.664 39.8718 70.3747 39.5918 70.16C39.3211 69.936 38.9618 69.824 38.5138 69.824C38.0564 69.824 37.6878 69.936 37.4078 70.16C37.1278 70.3747 36.9878 70.664 36.9878 71.028ZM40.3618 75.536C40.3618 75.1347 40.2171 74.8127 39.9278 74.57C39.6384 74.3273 39.1624 74.0847 38.4998 73.842C37.8464 74.0753 37.3704 74.318 37.0718 74.57C36.7824 74.822 36.6378 75.144 36.6378 75.536C36.6378 75.9653 36.8011 76.306 37.1278 76.558C37.4638 76.8007 37.9258 76.922 38.5138 76.922C39.1018 76.922 39.5544 76.8007 39.8718 76.558C40.1984 76.306 40.3618 75.9653 40.3618 75.536ZM43.7499 78L43.7499 68.76L46.6479 68.76C48.1506 68.76 49.3639 69.1847 50.2879 70.034C51.2119 70.8833 51.6739 71.994 51.6739 73.366C51.6739 74.7193 51.2072 75.83 50.2739 76.698C49.3499 77.566 48.1412 78 46.6479 78L43.7499 78ZM45.2339 76.67H46.6339C47.6979 76.67 48.5472 76.3667 49.1819 75.76C49.8259 75.144 50.1479 74.346 50.1479 73.366C50.1479 72.3767 49.8306 71.588 49.1959 71C48.5612 70.4027 47.7072 70.104 46.6339 70.104L45.2339 70.104L45.2339 76.67ZM59.4493 71.812C59.4493 72.1667 59.3933 72.5073 59.2812 72.834C59.1973 73.0953 59.0666 73.38 58.8893 73.688C58.7399 73.94 58.5019 74.29 58.1753 74.738L55.8792 78L54.1153 78L56.3413 74.85C56.2199 74.878 56.0846 74.892 55.9353 74.892C55.1326 74.892 54.4279 74.5933 53.8213 73.996C53.2146 73.3893 52.9113 72.6567 52.9113 71.798C52.9113 70.902 53.2333 70.146 53.8773 69.53C54.5213 68.914 55.2913 68.606 56.1873 68.606C57.0739 68.5873 57.8439 68.8953 58.4973 69.53C59.1506 70.1553 59.4679 70.916 59.4493 71.812ZM57.4613 73.1C57.8066 72.7547 57.9793 72.3207 57.9793 71.798C57.9793 71.2753 57.8066 70.8413 57.4613 70.496C57.1066 70.1413 56.6819 69.964 56.1873 69.964C55.6739 69.964 55.2399 70.1413 54.8853 70.496C54.5399 70.8413 54.3673 71.2753 54.3673 71.798C54.3673 72.33 54.5399 72.7687 54.8853 73.114C55.2306 73.4593 55.6646 73.632 56.1873 73.632C56.6819 73.632 57.1066 73.4547 57.4613 73.1Z" fill="black"/>
<rect width="70" height="50" fill="#E8D8D9"/>
</svg>
